<svg width="700" height="210" viewBox="0 0 700 210" fill="none" xmlns="http://www.w3.org/2000/svg">
<g clip-path="url(#clip0_1_159)">
<path d="M-9 12C-3 6.66667 3 6.66667 9 12C15 17.3333 21 17.3333 27 12C33 6.66667 39 6.66667 45 12C51 17.3333 57 17.3333 63 12C69 6.66667 75 6.66667 81 12C87 17.3333 93 17.3333 99 12C105 6.66667 111 6.66667 117 12C123 17.3333 129 17.3333 135 12C141 6.66667 147 6.66667 153 12C159 17.3333 165 17.3333 171 12" stroke="#4543E8" stroke-width="2"/>
</g>
<path d="M94.552 16L92.68 4.2H94.088L95.68 15.416L95.472 15.408L97.992 4.2H99.8L102.312 15.408L102.104 15.416L103.696 4.2H105.112L103.224 16H101.12L98.816 5.352H98.976L96.664 16H94.552ZM112.762 16.16C112.074 16.16 111.442 16.024 110.866 15.752C110.296 15.48 109.797 15.0853 109.37 14.568C108.949 14.0453 108.621 13.408 108.386 12.656C108.157 11.904 108.042 11.048 108.042 10.088C108.042 9.128 108.157 8.27467 108.386 7.528C108.621 6.776 108.949 6.144 109.37 5.632C109.797 5.11467 110.298 4.72267 110.874 4.456C111.45 4.18933 112.08 4.056 112.762 4.056C113.45 4.056 114.082 4.18933 114.658 4.456C115.234 4.72267 115.733 5.11467 116.154 5.632C116.581 6.144 116.909 6.776 117.138 7.528C117.373 8.27467 117.49 9.128 117.49 10.088C117.49 11.048 117.373 11.904 117.138 12.656C116.909 13.408 116.581 14.0453 116.154 14.568C115.733 15.0853 115.234 15.48 114.658 15.752C114.082 16.024 113.45 16.16 112.762 16.16ZM112.762 14.928C113.418 14.928 113.997 14.7493 114.498 14.392C115 14.0347 115.392 13.4987 115.674 12.784C115.957 12.064 116.098 11.1653 116.098 10.088C116.098 9.00533 115.954 8.10933 115.666 7.4C115.384 6.69067 114.992 6.16267 114.49 5.816C113.989 5.46933 113.413 5.296 112.762 5.296C112.117 5.296 111.541 5.46933 111.034 5.816C110.533 6.16267 110.138 6.69067 109.85 7.4C109.568 8.10933 109.426 9.00533 109.426 10.088C109.426 11.1707 109.568 12.072 109.85 12.792C110.138 13.5067 110.533 14.0427 111.034 14.4C111.541 14.752 112.117 14.928 112.762 14.928ZM121.425 16V4.2H125.521C126.604 4.2 127.428 4.456 127.993 4.968C128.558 5.48 128.841 6.26133 128.841 7.312C128.841 7.94133 128.721 8.47733 128.481 8.92C128.246 9.35733 127.961 9.696 127.625 9.936C127.294 10.176 126.988 10.312 126.705 10.344C126.993 10.3653 127.276 10.4453 127.553 10.584C127.836 10.7173 128.07 10.9253 128.257 11.208C128.444 11.4907 128.537 11.8693 128.537 12.344C128.537 12.7813 128.537 13.2293 128.537 13.688C128.537 14.1413 128.537 14.5893 128.537 15.032C128.537 15.2613 128.556 15.4667 128.593 15.648C128.63 15.824 128.673 15.9413 128.721 16H127.345C127.308 15.9307 127.27 15.8107 127.233 15.64C127.196 15.4693 127.177 15.2667 127.177 15.032C127.177 14.6213 127.177 14.2027 127.177 13.776C127.177 13.3493 127.177 12.928 127.177 12.512C127.177 11.9893 127.012 11.6 126.681 11.344C126.35 11.088 125.884 10.96 125.281 10.96H122.377L122.761 10.44V16H121.425ZM122.761 10.328L122.377 9.76H125.297C125.692 9.76 126.049 9.664 126.369 9.472C126.694 9.27467 126.953 9.00267 127.145 8.656C127.342 8.304 127.441 7.89333 127.441 7.424C127.441 6.69333 127.249 6.17333 126.865 5.864C126.481 5.55467 125.926 5.4 125.201 5.4H122.345L122.761 4.808V10.328ZM135.885 10.024L135.917 8.968L140.637 16H139.093L135.061 10.032L135.765 10.12L134.164 12.216L134.309 11.328V16H132.941V4.2H134.309V10.688L134.037 10.4L138.853 4.2H140.349L135.885 10.024Z" fill="#4543E8"/>
<path d="M18.93 55.75C21.67 55.75 23.99 56.13 25.89 56.89C27.81 57.63 29.27 58.78 30.27 60.34C31.29 61.9 31.8 63.88 31.8 66.28C31.8 68.56 31.33 70.47 30.39 72.01C29.47 73.53 28.28 74.69 26.82 75.49C25.38 76.27 23.88 76.7 22.32 76.78C24.02 76.82 25.67 77.21 27.27 77.95C28.87 78.67 30.18 79.83 31.2 81.43C32.24 83.01 32.76 85.12 32.76 87.76C32.76 90.34 32.24 92.55 31.2 94.39C30.18 96.21 28.63 97.6 26.55 98.56C24.47 99.52 21.85 100 18.69 100H4.23V55.75H18.93ZM9.18 76.45L7.44 74.71H16.53C19.73 74.71 22.22 74.07 24 72.79C25.78 71.49 26.67 69.58 26.67 67.06C26.67 65.38 26.3 64.05 25.56 63.07C24.82 62.07 23.77 61.35 22.41 60.91C21.07 60.47 19.5 60.25 17.7 60.25H6.87L9.18 57.34V76.45ZM17.7 95.5C20.74 95.5 23.14 94.83 24.9 93.49C26.66 92.15 27.54 90.15 27.54 87.49C27.54 85.87 27.25 84.53 26.67 83.47C26.09 82.39 25.3 81.54 24.3 80.92C23.3 80.3 22.15 79.86 20.85 79.6C19.57 79.32 18.22 79.18 16.8 79.18H7.44L9.18 77.44V98.41L6.87 95.5H17.7ZM41.0353 100V68.14H46.1353V77.92L44.4553 77.32C44.5753 76.14 44.8753 74.98 45.3553 73.84C45.8353 72.68 46.4953 71.64 47.3353 70.72C48.1953 69.78 49.2653 69.04 50.5453 68.5C51.8253 67.94 53.3253 67.66 55.0453 67.66C56.3253 67.66 57.3653 67.77 58.1653 67.99C58.9853 68.19 59.4953 68.35 59.6953 68.47L58.3753 73.48C58.1753 73.34 57.7653 73.16 57.1453 72.94C56.5453 72.72 55.6853 72.61 54.5653 72.61C52.9053 72.61 51.5253 72.91 50.4253 73.51C49.3453 74.11 48.4853 74.91 47.8453 75.91C47.2253 76.89 46.7853 77.96 46.5253 79.12C46.2653 80.28 46.1353 81.43 46.1353 82.57V100H41.0353ZM65.4759 100V68.14H70.5159V100H65.4759ZM68.0259 60.82C67.0859 60.82 66.2659 60.56 65.5659 60.04C64.8859 59.5 64.5459 58.77 64.5459 57.85C64.5459 56.95 64.8859 56.24 65.5659 55.72C66.2659 55.18 67.0859 54.91 68.0259 54.91C68.9659 54.91 69.7759 55.18 70.4559 55.72C71.1359 56.24 71.4759 56.95 71.4759 57.85C71.4759 58.77 71.1359 59.5 70.4559 60.04C69.7759 60.56 68.9659 60.82 68.0259 60.82ZM102.8 100V84.73C102.8 83.81 102.8 83.06 102.8 82.48C102.8 81.88 102.8 81.31 102.8 80.77C102.8 79.11 102.52 77.66 101.96 76.42C101.4 75.18 100.52 74.22 99.3202 73.54C98.1202 72.86 96.5502 72.52 94.6102 72.52C92.9102 72.52 91.3302 72.96 89.8702 73.84C88.4302 74.7 87.2702 75.87 86.3902 77.35C85.5302 78.81 85.1002 80.45 85.1002 82.27L82.1902 81.16C82.1902 78.66 82.8002 76.39 84.0202 74.35C85.2602 72.31 86.9002 70.69 88.9402 69.49C91.0002 68.27 93.2402 67.66 95.6602 67.66C98.1202 67.66 100.27 68.13 102.11 69.07C103.95 70.01 105.37 71.36 106.37 73.12C107.39 74.86 107.9 76.96 107.9 79.42C107.9 80.3 107.9 81.26 107.9 82.3C107.9 83.34 107.9 84.31 107.9 85.21V100H102.8ZM80.0002 100V68.14H85.1002V100H80.0002ZM137.137 98.05C138.857 98.19 140.367 98.51 141.667 99.01C142.987 99.49 144.017 100.2 144.757 101.14C145.497 102.1 145.867 103.35 145.867 104.89C145.867 106.59 145.287 108.09 144.127 109.39C142.967 110.71 141.207 111.74 138.847 112.48C136.487 113.22 133.517 113.59 129.937 113.59C124.877 113.59 121.057 112.85 118.477 111.37C115.897 109.91 114.607 107.91 114.607 105.37C114.607 104.57 114.697 103.86 114.877 103.24C115.077 102.64 115.297 102.15 115.537 101.77L120.397 102.49C120.237 102.71 120.077 103.04 119.917 103.48C119.777 103.94 119.707 104.47 119.707 105.07C119.707 106.67 120.617 107.79 122.437 108.43C124.257 109.09 126.837 109.42 130.177 109.42C132.677 109.42 134.727 109.25 136.327 108.91C137.927 108.57 139.117 108.08 139.897 107.44C140.677 106.8 141.067 106.05 141.067 105.19C141.067 103.89 140.517 103.08 139.417 102.76C138.337 102.46 136.997 102.25 135.397 102.13L123.277 101.23C121.257 101.07 119.607 100.45 118.327 99.37C117.067 98.27 116.437 96.94 116.437 95.38C116.437 94.42 116.667 93.51 117.127 92.65C117.607 91.79 118.157 91.07 118.777 90.49C119.417 89.89 119.987 89.53 120.487 89.41L124.507 91.24C124.007 91.32 123.387 91.67 122.647 92.29C121.927 92.89 121.567 93.6 121.567 94.42C121.567 95.16 121.857 95.77 122.437 96.25C123.017 96.71 124.167 97.01 125.887 97.15L137.137 98.05ZM141.547 68.14H146.347L144.367 80.68C144.007 83.02 143.257 85.14 142.117 87.04C140.977 88.92 139.417 90.42 137.437 91.54C135.477 92.64 133.047 93.19 130.147 93.19C127.127 93.19 124.547 92.64 122.407 91.54C120.267 90.44 118.627 88.94 117.487 87.04C116.347 85.12 115.777 82.96 115.777 80.56C115.777 78.12 116.367 75.93 117.547 73.99C118.747 72.03 120.407 70.49 122.527 69.37C124.647 68.23 127.077 67.66 129.817 67.66C132.277 67.66 134.427 68.09 136.267 68.95C138.107 69.79 139.557 70.85 140.617 72.13C141.697 73.41 142.297 74.7 142.417 76L140.497 76.12L141.547 68.14ZM130.117 88.63C132.057 88.63 133.717 88.31 135.097 87.67C136.497 87.03 137.567 86.1 138.307 84.88C139.067 83.66 139.447 82.18 139.447 80.44C139.447 78.76 139.067 77.31 138.307 76.09C137.567 74.85 136.497 73.9 135.097 73.24C133.717 72.56 132.067 72.22 130.147 72.22C128.307 72.22 126.677 72.57 125.257 73.27C123.857 73.95 122.757 74.91 121.957 76.15C121.177 77.39 120.787 78.85 120.787 80.53C120.787 82.23 121.157 83.69 121.897 84.91C122.657 86.11 123.727 87.03 125.107 87.67C126.507 88.31 128.177 88.63 130.117 88.63ZM153.66 100V68.14H158.7V100H153.66ZM156.21 60.82C155.27 60.82 154.45 60.56 153.75 60.04C153.07 59.5 152.73 58.77 152.73 57.85C152.73 56.95 153.07 56.24 153.75 55.72C154.45 55.18 155.27 54.91 156.21 54.91C157.15 54.91 157.96 55.18 158.64 55.72C159.32 56.24 159.66 56.95 159.66 57.85C159.66 58.77 159.32 59.5 158.64 60.04C157.96 60.56 157.15 60.82 156.21 60.82ZM190.984 100V84.73C190.984 83.81 190.984 83.06 190.984 82.48C190.984 81.88 190.984 81.31 190.984 80.77C190.984 79.11 190.704 77.66 190.144 76.42C189.584 75.18 188.704 74.22 187.504 73.54C186.304 72.86 184.734 72.52 182.794 72.52C181.094 72.52 179.514 72.96 178.054 73.84C176.614 74.7 175.454 75.87 174.574 77.35C173.714 78.81 173.284 80.45 173.284 82.27L170.374 81.16C170.374 78.66 170.984 76.39 172.204 74.35C173.444 72.31 175.084 70.69 177.124 69.49C179.184 68.27 181.424 67.66 183.844 67.66C186.304 67.66 188.454 68.13 190.294 69.07C192.134 70.01 193.554 71.36 194.554 73.12C195.574 74.86 196.084 76.96 196.084 79.42C196.084 80.3 196.084 81.26 196.084 82.3C196.084 83.34 196.084 84.31 196.084 85.21V100H190.984ZM168.184 100V68.14H173.284V100H168.184ZM225.321 98.05C227.041 98.19 228.551 98.51 229.851 99.01C231.171 99.49 232.201 100.2 232.941 101.14C233.681 102.1 234.051 103.35 234.051 104.89C234.051 106.59 233.471 108.09 232.311 109.39C231.151 110.71 229.391 111.74 227.031 112.48C224.671 113.22 221.701 113.59 218.121 113.59C213.061 113.59 209.241 112.85 206.661 111.37C204.081 109.91 202.791 107.91 202.791 105.37C202.791 104.57 202.881 103.86 203.061 103.24C203.261 102.64 203.481 102.15 203.721 101.77L208.581 102.49C208.421 102.71 208.261 103.04 208.101 103.48C207.961 103.94 207.891 104.47 207.891 105.07C207.891 106.67 208.801 107.79 210.621 108.43C212.441 109.09 215.021 109.42 218.361 109.42C220.861 109.42 222.911 109.25 224.511 108.91C226.111 108.57 227.301 108.08 228.081 107.44C228.861 106.8 229.251 106.05 229.251 105.19C229.251 103.89 228.701 103.08 227.601 102.76C226.521 102.46 225.181 102.25 223.581 102.13L211.461 101.23C209.441 101.07 207.791 100.45 206.511 99.37C205.251 98.27 204.621 96.94 204.621 95.38C204.621 94.42 204.851 93.51 205.311 92.65C205.791 91.79 206.341 91.07 206.961 90.49C207.601 89.89 208.171 89.53 208.671 89.41L212.691 91.24C212.191 91.32 211.571 91.67 210.831 92.29C210.111 92.89 209.751 93.6 209.751 94.42C209.751 95.16 210.041 95.77 210.621 96.25C211.201 96.71 212.351 97.01 214.071 97.15L225.321 98.05ZM229.731 68.14H234.531L232.551 80.68C232.191 83.02 231.441 85.14 230.301 87.04C229.161 88.92 227.601 90.42 225.621 91.54C223.661 92.64 221.231 93.19 218.331 93.19C215.311 93.19 212.731 92.64 210.591 91.54C208.451 90.44 206.811 88.94 205.671 87.04C204.531 85.12 203.961 82.96 203.961 80.56C203.961 78.12 204.551 75.93 205.731 73.99C206.931 72.03 208.591 70.49 210.711 69.37C212.831 68.23 215.261 67.66 218.001 67.66C220.461 67.66 222.611 68.09 224.451 68.95C226.291 69.79 227.741 70.85 228.801 72.13C229.881 73.41 230.481 74.7 230.601 76L228.681 76.12L229.731 68.14ZM218.301 88.63C220.241 88.63 221.901 88.31 223.281 87.67C224.681 87.03 225.751 86.1 226.491 84.88C227.251 83.66 227.631 82.18 227.631 80.44C227.631 78.76 227.251 77.31 226.491 76.09C225.751 74.85 224.681 73.9 223.281 73.24C221.901 72.56 220.251 72.22 218.331 72.22C216.491 72.22 214.861 72.57 213.441 73.27C212.041 73.95 210.941 74.91 210.141 76.15C209.361 77.39 208.971 78.85 208.971 80.53C208.971 82.23 209.341 83.69 210.081 84.91C210.841 86.11 211.911 87.03 213.291 87.67C214.691 88.31 216.361 88.63 218.301 88.63ZM268.723 100.6C266.803 100.6 265.023 100.4 263.383 100C261.763 99.58 260.343 98.98 259.123 98.2C257.923 97.4 256.983 96.42 256.303 95.26C255.643 94.1 255.313 92.77 255.313 91.27C255.313 91.11 255.313 90.95 255.313 90.79C255.313 90.61 255.313 90.46 255.313 90.34H260.443C260.443 90.46 260.443 90.56 260.443 90.64C260.443 90.72 260.443 90.84 260.443 91C260.443 92.62 261.193 93.86 262.693 94.72C264.193 95.56 266.243 95.98 268.843 95.98C270.443 95.98 271.873 95.82 273.133 95.5C274.393 95.18 275.383 94.69 276.103 94.03C276.843 93.37 277.213 92.54 277.213 91.54C277.213 89.88 276.433 88.7 274.873 88C273.333 87.28 271.023 86.66 267.943 86.14C266.323 85.86 264.783 85.5 263.323 85.06C261.863 84.6 260.563 84.01 259.423 83.29C258.303 82.57 257.413 81.68 256.753 80.62C256.113 79.54 255.793 78.25 255.793 76.75C255.793 74.81 256.363 73.17 257.503 71.83C258.663 70.47 260.223 69.44 262.183 68.74C264.143 68.02 266.323 67.66 268.723 67.66C271.043 67.66 273.183 68.03 275.143 68.77C277.103 69.51 278.673 70.59 279.853 72.01C281.053 73.41 281.653 75.14 281.653 77.2C281.653 77.28 281.653 77.38 281.653 77.5C281.653 77.6 281.653 77.7 281.653 77.8H276.553C276.553 77.7 276.553 77.62 276.553 77.56C276.553 77.5 276.553 77.43 276.553 77.35C276.553 76.19 276.183 75.24 275.443 74.5C274.703 73.74 273.743 73.18 272.563 72.82C271.383 72.44 270.123 72.25 268.783 72.25C267.523 72.25 266.283 72.39 265.063 72.67C263.843 72.93 262.833 73.37 262.033 73.99C261.233 74.61 260.833 75.46 260.833 76.54C260.833 77.62 261.203 78.49 261.943 79.15C262.703 79.79 263.763 80.32 265.123 80.74C266.503 81.14 268.123 81.51 269.983 81.85C271.643 82.15 273.213 82.53 274.693 82.99C276.173 83.43 277.473 84 278.593 84.7C279.733 85.4 280.623 86.29 281.263 87.37C281.923 88.43 282.253 89.73 282.253 91.27C282.253 92.83 281.893 94.19 281.173 95.35C280.473 96.51 279.493 97.48 278.233 98.26C276.993 99.04 275.553 99.62 273.913 100C272.293 100.4 270.563 100.6 268.723 100.6ZM302.131 100.48C301.151 100.48 300.191 100.37 299.251 100.15C298.311 99.93 297.461 99.54 296.701 98.98C295.961 98.4 295.371 97.59 294.931 96.55C294.491 95.49 294.271 94.13 294.271 92.47C294.271 92.05 294.271 91.62 294.271 91.18C294.271 90.72 294.271 90.24 294.271 89.74V72.64H286.501V68.14H291.481C292.161 68.14 292.691 68.12 293.071 68.08C293.451 68.02 293.721 67.89 293.881 67.69C294.061 67.47 294.171 67.14 294.211 66.7C294.251 66.24 294.271 65.61 294.271 64.81V57.58H299.401V68.14H309.361V72.64H299.401V88.09C299.401 88.53 299.401 88.96 299.401 89.38C299.401 89.8 299.401 90.19 299.401 90.55C299.401 92.25 299.601 93.58 300.001 94.54C300.421 95.5 301.351 95.98 302.791 95.98C303.371 95.98 303.921 95.93 304.441 95.83C304.961 95.73 305.351 95.63 305.611 95.53V99.97C305.271 100.09 304.791 100.2 304.171 100.3C303.571 100.42 302.891 100.48 302.131 100.48ZM316.494 86.11V81.55H341.124L340.224 83.05C340.224 82.93 340.224 82.82 340.224 82.72C340.224 82.6 340.224 82.49 340.224 82.39C340.224 80.55 339.834 78.87 339.054 77.35C338.294 75.81 337.154 74.58 335.634 73.66C334.114 72.74 332.234 72.28 329.994 72.28C327.734 72.28 325.744 72.76 324.024 73.72C322.304 74.68 320.964 76.04 320.004 77.8C319.044 79.54 318.564 81.62 318.564 84.04C318.564 86.5 319.024 88.62 319.944 90.4C320.884 92.18 322.214 93.55 323.934 94.51C325.654 95.47 327.694 95.95 330.054 95.95C331.734 95.95 333.194 95.78 334.434 95.44C335.674 95.08 336.694 94.61 337.494 94.03C338.314 93.43 338.934 92.78 339.354 92.08C339.774 91.38 340.024 90.68 340.104 89.98H345.204C345.104 91.26 344.704 92.53 344.004 93.79C343.304 95.05 342.314 96.2 341.034 97.24C339.754 98.26 338.184 99.08 336.324 99.7C334.464 100.32 332.324 100.63 329.904 100.63C326.704 100.63 323.884 99.93 321.444 98.53C319.004 97.13 317.084 95.19 315.684 92.71C314.304 90.23 313.614 87.38 313.614 84.16C313.614 80.9 314.314 78.04 315.714 75.58C317.114 73.1 319.044 71.16 321.504 69.76C323.964 68.36 326.774 67.66 329.934 67.66C333.154 67.66 335.944 68.36 338.304 69.76C340.664 71.16 342.484 73.08 343.764 75.52C345.044 77.94 345.684 80.7 345.684 83.8C345.684 84.12 345.674 84.54 345.654 85.06C345.634 85.58 345.604 85.93 345.564 86.11H316.494ZM359.123 53.11V100H354.083V53.11H359.123ZM373.947 53.11V100H368.907V53.11H373.947ZM394.411 100.6C391.991 100.6 389.871 100.22 388.051 99.46C386.251 98.7 384.851 97.61 383.851 96.19C382.851 94.75 382.351 93.03 382.351 91.03C382.351 88.95 382.891 87.22 383.971 85.84C385.051 84.44 386.571 83.35 388.531 82.57C390.491 81.79 392.771 81.27 395.371 81.01C399.291 80.61 402.081 80.22 403.741 79.84C405.401 79.44 406.231 78.8 406.231 77.92C406.231 77.9 406.231 77.89 406.231 77.89C406.231 77.87 406.231 77.85 406.231 77.83C406.231 75.99 405.481 74.62 403.981 73.72C402.481 72.8 400.311 72.34 397.471 72.34C394.511 72.34 392.211 72.86 390.571 73.9C388.931 74.92 388.111 76.58 388.111 78.88H383.071C383.071 76.5 383.681 74.48 384.901 72.82C386.121 71.14 387.811 69.86 389.971 68.98C392.151 68.1 394.661 67.66 397.501 67.66C400.101 67.66 402.441 68.06 404.521 68.86C406.621 69.64 408.281 70.81 409.501 72.37C410.741 73.91 411.361 75.82 411.361 78.1C411.361 78.52 411.361 78.94 411.361 79.36C411.361 79.76 411.361 80.17 411.361 80.59V94C411.361 94.7 411.391 95.38 411.451 96.04C411.511 96.7 411.611 97.28 411.751 97.78C411.931 98.38 412.131 98.87 412.351 99.25C412.571 99.61 412.751 99.86 412.891 100H407.761C407.661 99.9 407.511 99.67 407.311 99.31C407.111 98.93 406.921 98.49 406.741 97.99C406.601 97.59 406.491 97.09 406.411 96.49C406.331 95.87 406.291 95.23 406.291 94.57L407.131 95.14C406.511 96.22 405.601 97.17 404.401 97.99C403.221 98.81 401.791 99.45 400.111 99.91C398.431 100.37 396.531 100.6 394.411 100.6ZM395.221 96.01C397.281 96.01 399.141 95.7 400.801 95.08C402.461 94.44 403.781 93.5 404.761 92.26C405.741 91.02 406.231 89.48 406.231 87.64V81.31L407.371 83.23C406.091 83.73 404.491 84.14 402.571 84.46C400.671 84.76 398.681 85.01 396.601 85.21C393.581 85.49 391.301 86.02 389.761 86.8C388.241 87.58 387.481 88.89 387.481 90.73C387.481 92.47 388.111 93.79 389.371 94.69C390.631 95.57 392.581 96.01 395.221 96.01ZM419.844 100V68.14H424.944V77.92L423.264 77.32C423.384 76.14 423.684 74.98 424.164 73.84C424.644 72.68 425.304 71.64 426.144 70.72C427.004 69.78 428.074 69.04 429.354 68.5C430.634 67.94 432.134 67.66 433.854 67.66C435.134 67.66 436.174 67.77 436.974 67.99C437.794 68.19 438.304 68.35 438.504 68.47L437.184 73.48C436.984 73.34 436.574 73.16 435.954 72.94C435.354 72.72 434.494 72.61 433.374 72.61C431.714 72.61 430.334 72.91 429.234 73.51C428.154 74.11 427.294 74.91 426.654 75.91C426.034 76.89 425.594 77.96 425.334 79.12C425.074 80.28 424.944 81.43 424.944 82.57V100H419.844ZM458.985 100V68.14H464.085V77.92L462.405 77.32C462.525 76.14 462.825 74.98 463.305 73.84C463.785 72.68 464.445 71.64 465.285 70.72C466.145 69.78 467.215 69.04 468.495 68.5C469.775 67.94 471.275 67.66 472.995 67.66C474.275 67.66 475.315 67.77 476.115 67.99C476.935 68.19 477.445 68.35 477.645 68.47L476.325 73.48C476.125 73.34 475.715 73.16 475.095 72.94C474.495 72.72 473.635 72.61 472.515 72.61C470.855 72.61 469.475 72.91 468.375 73.51C467.295 74.11 466.435 74.91 465.795 75.91C465.175 76.89 464.735 77.96 464.475 79.12C464.215 80.28 464.085 81.43 464.085 82.57V100H458.985ZM484.189 86.11V81.55H508.819L507.919 83.05C507.919 82.93 507.919 82.82 507.919 82.72C507.919 82.6 507.919 82.49 507.919 82.39C507.919 80.55 507.529 78.87 506.749 77.35C505.989 75.81 504.849 74.58 503.329 73.66C501.809 72.74 499.929 72.28 497.689 72.28C495.429 72.28 493.439 72.76 491.719 73.72C489.999 74.68 488.659 76.04 487.699 77.8C486.739 79.54 486.259 81.62 486.259 84.04C486.259 86.5 486.719 88.62 487.639 90.4C488.579 92.18 489.909 93.55 491.629 94.51C493.349 95.47 495.389 95.95 497.749 95.95C499.429 95.95 500.889 95.78 502.129 95.44C503.369 95.08 504.389 94.61 505.189 94.03C506.009 93.43 506.629 92.78 507.049 92.08C507.469 91.38 507.719 90.68 507.799 89.98H512.899C512.799 91.26 512.399 92.53 511.699 93.79C510.999 95.05 510.009 96.2 508.729 97.24C507.449 98.26 505.879 99.08 504.019 99.7C502.159 100.32 500.019 100.63 497.599 100.63C494.399 100.63 491.579 99.93 489.139 98.53C486.699 97.13 484.779 95.19 483.379 92.71C481.999 90.23 481.309 87.38 481.309 84.16C481.309 80.9 482.009 78.04 483.409 75.58C484.809 73.1 486.739 71.16 489.199 69.76C491.659 68.36 494.469 67.66 497.629 67.66C500.849 67.66 503.639 68.36 505.999 69.76C508.359 71.16 510.179 73.08 511.459 75.52C512.739 77.94 513.379 80.7 513.379 83.8C513.379 84.12 513.369 84.54 513.349 85.06C513.329 85.58 513.299 85.93 513.259 86.11H484.189ZM533.508 100.6C531.588 100.6 529.808 100.4 528.168 100C526.548 99.58 525.128 98.98 523.908 98.2C522.708 97.4 521.768 96.42 521.088 95.26C520.428 94.1 520.098 92.77 520.098 91.27C520.098 91.11 520.098 90.95 520.098 90.79C520.098 90.61 520.098 90.46 520.098 90.34H525.228C525.228 90.46 525.228 90.56 525.228 90.64C525.228 90.72 525.228 90.84 525.228 91C525.228 92.62 525.978 93.86 527.478 94.72C528.978 95.56 531.028 95.98 533.628 95.98C535.228 95.98 536.658 95.82 537.918 95.5C539.178 95.18 540.168 94.69 540.888 94.03C541.628 93.37 541.998 92.54 541.998 91.54C541.998 89.88 541.218 88.7 539.658 88C538.118 87.28 535.808 86.66 532.728 86.14C531.108 85.86 529.568 85.5 528.108 85.06C526.648 84.6 525.348 84.01 524.208 83.29C523.088 82.57 522.198 81.68 521.538 80.62C520.898 79.54 520.578 78.25 520.578 76.75C520.578 74.81 521.148 73.17 522.288 71.83C523.448 70.47 525.008 69.44 526.968 68.74C528.928 68.02 531.108 67.66 533.508 67.66C535.828 67.66 537.968 68.03 539.928 68.77C541.888 69.51 543.458 70.59 544.638 72.01C545.838 73.41 546.438 75.14 546.438 77.2C546.438 77.28 546.438 77.38 546.438 77.5C546.438 77.6 546.438 77.7 546.438 77.8H541.338C541.338 77.7 541.338 77.62 541.338 77.56C541.338 77.5 541.338 77.43 541.338 77.35C541.338 76.19 540.968 75.24 540.228 74.5C539.488 73.74 538.528 73.18 537.348 72.82C536.168 72.44 534.908 72.25 533.568 72.25C532.308 72.25 531.068 72.39 529.848 72.67C528.628 72.93 527.618 73.37 526.818 73.99C526.018 74.61 525.618 75.46 525.618 76.54C525.618 77.62 525.988 78.49 526.728 79.15C527.488 79.79 528.548 80.32 529.908 80.74C531.288 81.14 532.908 81.51 534.768 81.85C536.428 82.15 537.998 82.53 539.478 82.99C540.958 83.43 542.258 84 543.378 84.7C544.518 85.4 545.408 86.29 546.048 87.37C546.708 88.43 547.038 89.73 547.038 91.27C547.038 92.83 546.678 94.19 545.958 95.35C545.258 96.51 544.278 97.48 543.018 98.26C541.778 99.04 540.338 99.62 538.698 100C537.078 100.4 535.348 100.6 533.508 100.6ZM566.721 100.57C564.441 100.57 562.541 100.18 561.021 99.4C559.501 98.6 558.291 97.57 557.391 96.31C556.511 95.05 555.881 93.69 555.501 92.23C555.141 90.75 554.961 89.33 554.961 87.97C554.961 87.21 554.961 86.43 554.961 85.63C554.961 84.81 554.961 83.99 554.961 83.17V68.14H560.091V82.51C560.091 83.25 560.091 83.98 560.091 84.7C560.091 85.42 560.091 86.1 560.091 86.74C560.091 88.36 560.311 89.86 560.751 91.24C561.211 92.62 562.001 93.74 563.121 94.6C564.241 95.44 565.781 95.86 567.741 95.86C569.581 95.86 571.191 95.31 572.571 94.21C573.951 93.09 575.031 91.7 575.811 90.04C576.591 88.36 576.981 86.69 576.981 85.03L579.951 86.26C579.951 88.02 579.641 89.75 579.021 91.45C578.401 93.13 577.511 94.66 576.351 96.04C575.211 97.42 573.821 98.52 572.181 99.34C570.561 100.16 568.741 100.57 566.721 100.57ZM576.981 100V68.14H582.081V100H576.981ZM596.428 53.11V100H591.388V53.11H596.428ZM618.362 100.48C617.382 100.48 616.422 100.37 615.482 100.15C614.542 99.93 613.692 99.54 612.932 98.98C612.192 98.4 611.602 97.59 611.162 96.55C610.722 95.49 610.502 94.13 610.502 92.47C610.502 92.05 610.502 91.62 610.502 91.18C610.502 90.72 610.502 90.24 610.502 89.74V72.64H602.732V68.14H607.712C608.392 68.14 608.922 68.12 609.302 68.08C609.682 68.02 609.952 67.89 610.112 67.69C610.292 67.47 610.402 67.14 610.442 66.7C610.482 66.24 610.502 65.61 610.502 64.81V57.58H615.632V68.14H625.592V72.64H615.632V88.09C615.632 88.53 615.632 88.96 615.632 89.38C615.632 89.8 615.632 90.19 615.632 90.55C615.632 92.25 615.832 93.58 616.232 94.54C616.652 95.5 617.582 95.98 619.022 95.98C619.602 95.98 620.152 95.93 620.672 95.83C621.192 95.73 621.582 95.63 621.842 95.53V99.97C621.502 100.09 621.022 100.2 620.402 100.3C619.802 100.42 619.122 100.48 618.362 100.48ZM643.254 100.6C641.334 100.6 639.554 100.4 637.914 100C636.294 99.58 634.874 98.98 633.654 98.2C632.454 97.4 631.514 96.42 630.834 95.26C630.174 94.1 629.844 92.77 629.844 91.27C629.844 91.11 629.844 90.95 629.844 90.79C629.844 90.61 629.844 90.46 629.844 90.34H634.974C634.974 90.46 634.974 90.56 634.974 90.64C634.974 90.72 634.974 90.84 634.974 91C634.974 92.62 635.724 93.86 637.224 94.72C638.724 95.56 640.774 95.98 643.374 95.98C644.974 95.98 646.404 95.82 647.664 95.5C648.924 95.18 649.914 94.69 650.634 94.03C651.374 93.37 651.744 92.54 651.744 91.54C651.744 89.88 650.964 88.7 649.404 88C647.864 87.28 645.554 86.66 642.474 86.14C640.854 85.86 639.314 85.5 637.854 85.06C636.394 84.6 635.094 84.01 633.954 83.29C632.834 82.57 631.944 81.68 631.284 80.62C630.644 79.54 630.324 78.25 630.324 76.75C630.324 74.81 630.894 73.17 632.034 71.83C633.194 70.47 634.754 69.44 636.714 68.74C638.674 68.02 640.854 67.66 643.254 67.66C645.574 67.66 647.714 68.03 649.674 68.77C651.634 69.51 653.204 70.59 654.384 72.01C655.584 73.41 656.184 75.14 656.184 77.2C656.184 77.28 656.184 77.38 656.184 77.5C656.184 77.6 656.184 77.7 656.184 77.8H651.084C651.084 77.7 651.084 77.62 651.084 77.56C651.084 77.5 651.084 77.43 651.084 77.35C651.084 76.19 650.714 75.24 649.974 74.5C649.234 73.74 648.274 73.18 647.094 72.82C645.914 72.44 644.654 72.25 643.314 72.25C642.054 72.25 640.814 72.39 639.594 72.67C638.374 72.93 637.364 73.37 636.564 73.99C635.764 74.61 635.364 75.46 635.364 76.54C635.364 77.62 635.734 78.49 636.474 79.15C637.234 79.79 638.294 80.32 639.654 80.74C641.034 81.14 642.654 81.51 644.514 81.85C646.174 82.15 647.744 82.53 649.224 82.99C650.704 83.43 652.004 84 653.124 84.7C654.264 85.4 655.154 86.29 655.794 87.37C656.454 88.43 656.784 89.73 656.784 91.27C656.784 92.83 656.424 94.19 655.704 95.35C655.004 96.51 654.024 97.48 652.764 98.26C651.524 99.04 650.084 99.62 648.444 100C646.824 100.4 645.094 100.6 643.254 100.6ZM8.52 166V138.64H1.56V134.14H8.52V130.03C8.52 128.61 8.68 127.31 9 126.13C9.34 124.93 9.82 123.87 10.44 122.95C11.08 122.03 11.85 121.25 12.75 120.61C13.65 119.97 14.67 119.49 15.81 119.17C16.97 118.83 18.23 118.66 19.59 118.66C20.57 118.66 21.35 118.72 21.93 118.84C22.51 118.96 22.9 119.07 23.1 119.17V123.67C22.86 123.59 22.46 123.5 21.9 123.4C21.34 123.3 20.74 123.25 20.1 123.25C18.74 123.25 17.63 123.46 16.77 123.88C15.93 124.3 15.28 124.88 14.82 125.62C14.36 126.34 14.04 127.16 13.86 128.08C13.7 129 13.62 129.96 13.62 130.96V134.14H22.92V138.64H13.62V166H8.52ZM42.2972 166.57C39.0972 166.57 36.2672 165.86 33.8072 164.44C31.3672 163 29.4472 161.04 28.0472 158.56C26.6672 156.06 25.9772 153.22 25.9772 150.04C25.9772 146.86 26.6672 144.04 28.0472 141.58C29.4472 139.12 31.3672 137.19 33.8072 135.79C36.2672 134.39 39.0972 133.69 42.2972 133.69C45.4972 133.69 48.3172 134.39 50.7572 135.79C53.2172 137.19 55.1372 139.12 56.5172 141.58C57.9172 144.04 58.6172 146.86 58.6172 150.04C58.6172 153.22 57.9172 156.06 56.5172 158.56C55.1372 161.04 53.2172 163 50.7572 164.44C48.3172 165.86 45.4972 166.57 42.2972 166.57ZM42.2972 161.89C44.4972 161.89 46.4372 161.4 48.1172 160.42C49.7972 159.44 51.1072 158.06 52.0472 156.28C53.0072 154.5 53.4872 152.42 53.4872 150.04C53.4872 147.66 53.0072 145.6 52.0472 143.86C51.1072 142.1 49.7972 140.75 48.1172 139.81C46.4372 138.85 44.4972 138.37 42.2972 138.37C40.1172 138.37 38.1772 138.85 36.4772 139.81C34.7972 140.75 33.4772 142.1 32.5172 143.86C31.5772 145.6 31.1072 147.66 31.1072 150.04C31.1072 152.42 31.5772 154.5 32.5172 156.28C33.4772 158.06 34.7972 159.44 36.4772 160.42C38.1772 161.4 40.1172 161.89 42.2972 161.89ZM66.5822 166V134.14H71.6822V143.92L70.0022 143.32C70.1222 142.14 70.4222 140.98 70.9022 139.84C71.3822 138.68 72.0422 137.64 72.8822 136.72C73.7422 135.78 74.8122 135.04 76.0922 134.5C77.3722 133.94 78.8722 133.66 80.5922 133.66C81.8722 133.66 82.9122 133.77 83.7122 133.99C84.5322 134.19 85.0422 134.35 85.2422 134.47L83.9222 139.48C83.7222 139.34 83.3122 139.16 82.6922 138.94C82.0922 138.72 81.2322 138.61 80.1122 138.61C78.4522 138.61 77.0722 138.91 75.9722 139.51C74.8922 140.11 74.0322 140.91 73.3922 141.91C72.7722 142.89 72.3322 143.96 72.0722 145.12C71.8122 146.28 71.6822 147.43 71.6822 148.57V166H66.5822ZM107.373 152.11V147.55H132.003L131.103 149.05C131.103 148.93 131.103 148.82 131.103 148.72C131.103 148.6 131.103 148.49 131.103 148.39C131.103 146.55 130.713 144.87 129.933 143.35C129.173 141.81 128.033 140.58 126.513 139.66C124.993 138.74 123.113 138.28 120.873 138.28C118.613 138.28 116.623 138.76 114.903 139.72C113.183 140.68 111.843 142.04 110.883 143.8C109.923 145.54 109.443 147.62 109.443 150.04C109.443 152.5 109.903 154.62 110.823 156.4C111.763 158.18 113.093 159.55 114.813 160.51C116.533 161.47 118.573 161.95 120.933 161.95C122.613 161.95 124.073 161.78 125.313 161.44C126.553 161.08 127.573 160.61 128.373 160.03C129.193 159.43 129.813 158.78 130.233 158.08C130.653 157.38 130.903 156.68 130.983 155.98H136.083C135.983 157.26 135.583 158.53 134.883 159.79C134.183 161.05 133.193 162.2 131.913 163.24C130.633 164.26 129.063 165.08 127.203 165.7C125.343 166.32 123.203 166.63 120.783 166.63C117.583 166.63 114.763 165.93 112.323 164.53C109.883 163.13 107.963 161.19 106.563 158.71C105.183 156.23 104.493 153.38 104.493 150.16C104.493 146.9 105.193 144.04 106.593 141.58C107.993 139.1 109.923 137.16 112.383 135.76C114.843 134.36 117.653 133.66 120.813 133.66C124.033 133.66 126.823 134.36 129.183 135.76C131.543 137.16 133.363 139.08 134.643 141.52C135.923 143.94 136.563 146.7 136.563 149.8C136.563 150.12 136.553 150.54 136.533 151.06C136.513 151.58 136.483 151.93 136.443 152.11H107.373ZM168.81 134.14L158.13 166H151.44L140.52 134.14H145.8L155.19 163.3H154.38L163.53 134.14H168.81ZM175.049 152.11V147.55H199.679L198.779 149.05C198.779 148.93 198.779 148.82 198.779 148.72C198.779 148.6 198.779 148.49 198.779 148.39C198.779 146.55 198.389 144.87 197.609 143.35C196.849 141.81 195.709 140.58 194.189 139.66C192.669 138.74 190.789 138.28 188.549 138.28C186.289 138.28 184.299 138.76 182.579 139.72C180.859 140.68 179.519 142.04 178.559 143.8C177.599 145.54 177.119 147.62 177.119 150.04C177.119 152.5 177.579 154.62 178.499 156.4C179.439 158.18 180.769 159.55 182.489 160.51C184.209 161.47 186.249 161.95 188.609 161.95C190.289 161.95 191.749 161.78 192.989 161.44C194.229 161.08 195.249 160.61 196.049 160.03C196.869 159.43 197.489 158.78 197.909 158.08C198.329 157.38 198.579 156.68 198.659 155.98H203.759C203.659 157.26 203.259 158.53 202.559 159.79C201.859 161.05 200.869 162.2 199.589 163.24C198.309 164.26 196.739 165.08 194.879 165.7C193.019 166.32 190.879 166.63 188.459 166.63C185.259 166.63 182.439 165.93 179.999 164.53C177.559 163.13 175.639 161.19 174.239 158.71C172.859 156.23 172.169 153.38 172.169 150.16C172.169 146.9 172.869 144.04 174.269 141.58C175.669 139.1 177.599 137.16 180.059 135.76C182.519 134.36 185.329 133.66 188.489 133.66C191.709 133.66 194.499 134.36 196.859 135.76C199.219 137.16 201.039 139.08 202.319 141.52C203.599 143.94 204.239 146.7 204.239 149.8C204.239 150.12 204.229 150.54 204.209 151.06C204.189 151.58 204.159 151.93 204.119 152.11H175.049ZM212.188 166V134.14H217.288V143.92L215.608 143.32C215.728 142.14 216.028 140.98 216.508 139.84C216.988 138.68 217.648 137.64 218.488 136.72C219.348 135.78 220.418 135.04 221.698 134.5C222.978 133.94 224.478 133.66 226.198 133.66C227.478 133.66 228.518 133.77 229.318 133.99C230.138 134.19 230.648 134.35 230.848 134.47L229.528 139.48C229.328 139.34 228.918 139.16 228.298 138.94C227.698 138.72 226.838 138.61 225.718 138.61C224.058 138.61 222.678 138.91 221.578 139.51C220.498 140.11 219.638 140.91 218.998 141.91C218.378 142.89 217.938 143.96 217.678 145.12C217.418 146.28 217.288 147.43 217.288 148.57V166H212.188ZM237.288 179.44C236.488 179.44 235.758 179.39 235.098 179.29C234.438 179.21 234.028 179.13 233.868 179.05V174.61C234.128 174.73 234.558 174.83 235.158 174.91C235.758 174.99 236.358 175.03 236.958 175.03C238.238 175.03 239.318 174.76 240.198 174.22C241.078 173.7 241.818 172.98 242.418 172.06C243.018 171.16 243.508 170.14 243.888 169L244.848 166.18L233.868 134.14H239.208L248.028 161.59H247.308L255.948 134.14H261.198L249.528 168.73C248.868 170.67 248.068 172.45 247.128 174.07C246.208 175.69 244.968 176.99 243.408 177.97C241.868 178.95 239.828 179.44 237.288 179.44ZM297.679 166.6C294.639 166.6 291.879 165.94 289.399 164.62C286.919 163.28 284.949 161.37 283.489 158.89C282.049 156.41 281.329 153.46 281.329 150.04C281.329 146.62 282.049 143.69 283.489 141.25C284.949 138.79 286.919 136.91 289.399 135.61C291.879 134.31 294.639 133.66 297.679 133.66C299.999 133.66 302.069 134.02 303.889 134.74C305.709 135.44 307.249 136.38 308.509 137.56C309.769 138.74 310.729 140.04 311.389 141.46C312.069 142.86 312.409 144.26 312.409 145.66C312.409 145.68 312.409 145.71 312.409 145.75C312.409 145.79 312.409 145.83 312.409 145.87H307.339C307.339 145.77 307.329 145.66 307.309 145.54C307.289 145.4 307.269 145.26 307.249 145.12C307.089 143.78 306.579 142.61 305.719 141.61C304.859 140.59 303.739 139.79 302.359 139.21C300.979 138.63 299.409 138.34 297.649 138.34C295.669 138.34 293.829 138.77 292.129 139.63C290.449 140.47 289.089 141.76 288.049 143.5C287.029 145.22 286.519 147.4 286.519 150.04C286.519 152.66 287.029 154.85 288.049 156.61C289.069 158.37 290.419 159.7 292.099 160.6C293.799 161.48 295.649 161.92 297.649 161.92C299.809 161.92 301.589 161.58 302.989 160.9C304.389 160.22 305.439 159.32 306.139 158.2C306.859 157.06 307.259 155.84 307.339 154.54H312.409C312.409 155.98 312.089 157.42 311.449 158.86C310.809 160.28 309.869 161.58 308.629 162.76C307.389 163.92 305.849 164.85 304.009 165.55C302.189 166.25 300.079 166.6 297.679 166.6ZM325.842 119.11V166H320.802V119.11H325.842ZM335.476 166V134.14H340.516V166H335.476ZM338.026 126.82C337.086 126.82 336.266 126.56 335.566 126.04C334.886 125.5 334.546 124.77 334.546 123.85C334.546 122.95 334.886 122.24 335.566 121.72C336.266 121.18 337.086 120.91 338.026 120.91C338.966 120.91 339.776 121.18 340.456 121.72C341.136 122.24 341.476 122.95 341.476 123.85C341.476 124.77 341.136 125.5 340.456 126.04C339.776 126.56 338.966 126.82 338.026 126.82ZM351.65 152.11V147.55H376.28L375.38 149.05C375.38 148.93 375.38 148.82 375.38 148.72C375.38 148.6 375.38 148.49 375.38 148.39C375.38 146.55 374.99 144.87 374.21 143.35C373.45 141.81 372.31 140.58 370.79 139.66C369.27 138.74 367.39 138.28 365.15 138.28C362.89 138.28 360.9 138.76 359.18 139.72C357.46 140.68 356.12 142.04 355.16 143.8C354.2 145.54 353.72 147.62 353.72 150.04C353.72 152.5 354.18 154.62 355.1 156.4C356.04 158.18 357.37 159.55 359.09 160.51C360.81 161.47 362.85 161.95 365.21 161.95C366.89 161.95 368.35 161.78 369.59 161.44C370.83 161.08 371.85 160.61 372.65 160.03C373.47 159.43 374.09 158.78 374.51 158.08C374.93 157.38 375.18 156.68 375.26 155.98H380.36C380.26 157.26 379.86 158.53 379.16 159.79C378.46 161.05 377.47 162.2 376.19 163.24C374.91 164.26 373.34 165.08 371.48 165.7C369.62 166.32 367.48 166.63 365.06 166.63C361.86 166.63 359.04 165.93 356.6 164.53C354.16 163.13 352.24 161.19 350.84 158.71C349.46 156.23 348.77 153.38 348.77 150.16C348.77 146.9 349.47 144.04 350.87 141.58C352.27 139.1 354.2 137.16 356.66 135.76C359.12 134.36 361.93 133.66 365.09 133.66C368.31 133.66 371.1 134.36 373.46 135.76C375.82 137.16 377.64 139.08 378.92 141.52C380.2 143.94 380.84 146.7 380.84 149.8C380.84 150.12 380.83 150.54 380.81 151.06C380.79 151.58 380.76 151.93 380.72 152.11H351.65ZM411.589 166V150.73C411.589 149.81 411.589 149.06 411.589 148.48C411.589 147.88 411.589 147.31 411.589 146.77C411.589 145.11 411.309 143.66 410.749 142.42C410.189 141.18 409.309 140.22 408.109 139.54C406.909 138.86 405.339 138.52 403.399 138.52C401.699 138.52 400.119 138.96 398.659 139.84C397.219 140.7 396.059 141.87 395.179 143.35C394.319 144.81 393.889 146.45 393.889 148.27L390.979 147.16C390.979 144.66 391.589 142.39 392.809 140.35C394.049 138.31 395.689 136.69 397.729 135.49C399.789 134.27 402.029 133.66 404.449 133.66C406.909 133.66 409.059 134.13 410.899 135.07C412.739 136.01 414.159 137.36 415.159 139.12C416.179 140.86 416.689 142.96 416.689 145.42C416.689 146.3 416.689 147.26 416.689 148.3C416.689 149.34 416.689 150.31 416.689 151.21V166H411.589ZM388.789 166V134.14H393.889V166H388.789ZM437.307 166.48C436.327 166.48 435.367 166.37 434.427 166.15C433.487 165.93 432.637 165.54 431.877 164.98C431.137 164.4 430.547 163.59 430.107 162.55C429.667 161.49 429.447 160.13 429.447 158.47C429.447 158.05 429.447 157.62 429.447 157.18C429.447 156.72 429.447 156.24 429.447 155.74V138.64H421.677V134.14H426.657C427.337 134.14 427.867 134.12 428.247 134.08C428.627 134.02 428.897 133.89 429.057 133.69C429.237 133.47 429.347 133.14 429.387 132.7C429.427 132.24 429.447 131.61 429.447 130.81V123.58H434.577V134.14H444.537V138.64H434.577V154.09C434.577 154.53 434.577 154.96 434.577 155.38C434.577 155.8 434.577 156.19 434.577 156.55C434.577 158.25 434.777 159.58 435.177 160.54C435.597 161.5 436.527 161.98 437.967 161.98C438.547 161.98 439.097 161.93 439.617 161.83C440.137 161.73 440.527 161.63 440.787 161.53V165.97C440.447 166.09 439.967 166.2 439.347 166.3C438.747 166.42 438.067 166.48 437.307 166.48ZM454.194 166.78C453.214 166.78 452.384 166.45 451.704 165.79C451.044 165.11 450.714 164.28 450.714 163.3C450.714 162.34 451.044 161.52 451.704 160.84C452.384 160.16 453.214 159.82 454.194 159.82C455.154 159.82 455.974 160.16 456.654 160.84C457.334 161.52 457.674 162.34 457.674 163.3C457.674 164.28 457.334 165.11 456.654 165.79C455.974 166.45 455.154 166.78 454.194 166.78Z" fill="black"/>
<defs>
<clipPath id="clip0_1_159">
<rect width="72" height="10" fill="white" transform="translate(0 7)"/>
</clipPath>
</defs>
</svg>
