<svg width="421" height="24" viewBox="0 0 421 24" fill="none" xmlns="http://www.w3.org/2000/svg">
<g clip-path="url(#clip0_1_217)">
<path d="M-8 12C-2 6.66667 4 6.66667 10 12C16 17.3333 22 17.3333 28 12C34 6.66667 40 6.66667 46 12C52 17.3333 58 17.3333 64 12C70 6.66667 76 6.66667 82 12C88 17.3333 94 17.3333 100 12C106 6.66667 112 6.66667 118 12C124 17.3333 130 17.3333 136 12C142 6.66667 148 6.66667 154 12C160 17.3333 166 17.3333 172 12" stroke="#D8D8EB" stroke-width="2"/>
</g>
<path d="M97.696 16.16C96.88 16.16 96.1813 16.032 95.6 15.776C95.024 15.5147 94.5813 15.1227 94.272 14.6C93.9627 14.0773 93.808 13.4267 93.808 12.648C93.808 12.5413 93.808 12.4507 93.808 12.376C93.808 12.3013 93.808 12.2107 93.808 12.104H95.176C95.176 12.2053 95.176 12.2907 95.176 12.36C95.176 12.4293 95.176 12.5173 95.176 12.624C95.176 13.44 95.3893 14.0293 95.816 14.392C96.2427 14.7493 96.864 14.928 97.68 14.928C98.5227 14.928 99.16 14.784 99.592 14.496C100.024 14.208 100.24 13.7413 100.24 13.096C100.24 12.6427 100.115 12.2667 99.864 11.968C99.6187 11.664 99.2773 11.408 98.84 11.2C98.4027 10.9867 97.8933 10.792 97.312 10.616C96.656 10.4133 96.0693 10.1573 95.552 9.848C95.04 9.53867 94.6347 9.15733 94.336 8.704C94.0427 8.24533 93.896 7.688 93.896 7.032C93.896 6.392 94.0507 5.85067 94.36 5.408C94.6747 4.96533 95.112 4.62933 95.672 4.4C96.232 4.17067 96.8827 4.056 97.624 4.056C98.408 4.056 99.088 4.17867 99.664 4.424C100.245 4.664 100.693 5.032 101.008 5.528C101.328 6.01867 101.488 6.63733 101.488 7.384C101.488 7.50133 101.488 7.60267 101.488 7.688C101.488 7.768 101.488 7.86667 101.488 7.984H100.12C100.12 7.88267 100.12 7.792 100.12 7.712C100.12 7.632 100.12 7.54133 100.12 7.44C100.12 6.66133 99.9093 6.10933 99.488 5.784C99.0667 5.45333 98.4533 5.288 97.648 5.288C96.8747 5.288 96.2773 5.424 95.856 5.696C95.4347 5.968 95.224 6.41333 95.224 7.032C95.224 7.496 95.352 7.88 95.608 8.184C95.8693 8.48267 96.224 8.73867 96.672 8.952C97.12 9.16 97.632 9.36 98.208 9.552C98.9067 9.78133 99.5067 10.0427 100.008 10.336C100.515 10.624 100.901 10.984 101.168 11.416C101.44 11.848 101.576 12.392 101.576 13.048C101.576 13.704 101.419 14.264 101.104 14.728C100.795 15.192 100.349 15.5467 99.768 15.792C99.192 16.0373 98.5013 16.16 97.696 16.16ZM106.271 5.4L106.887 4.624V9.952L106.551 9.48H111.079V10.68H106.551L106.887 10.208V15.576L106.271 14.8H111.967V16H105.519V4.2H111.967V5.4H106.271ZM116.222 16V4.2H120.318C121.4 4.2 122.224 4.456 122.79 4.968C123.355 5.48 123.638 6.26133 123.638 7.312C123.638 7.94133 123.518 8.47733 123.278 8.92C123.043 9.35733 122.758 9.696 122.422 9.936C122.091 10.176 121.784 10.312 121.502 10.344C121.79 10.3653 122.072 10.4453 122.35 10.584C122.632 10.7173 122.867 10.9253 123.054 11.208C123.24 11.4907 123.334 11.8693 123.334 12.344C123.334 12.7813 123.334 13.2293 123.334 13.688C123.334 14.1413 123.334 14.5893 123.334 15.032C123.334 15.2613 123.352 15.4667 123.39 15.648C123.427 15.824 123.47 15.9413 123.518 16H122.142C122.104 15.9307 122.067 15.8107 122.03 15.64C121.992 15.4693 121.974 15.2667 121.974 15.032C121.974 14.6213 121.974 14.2027 121.974 13.776C121.974 13.3493 121.974 12.928 121.974 12.512C121.974 11.9893 121.808 11.6 121.478 11.344C121.147 11.088 120.68 10.96 120.078 10.96H117.174L117.558 10.44V16H116.222ZM117.558 10.328L117.174 9.76H120.094C120.488 9.76 120.846 9.664 121.166 9.472C121.491 9.27467 121.75 9.00267 121.942 8.656C122.139 8.304 122.238 7.89333 122.238 7.424C122.238 6.69333 122.046 6.17333 121.662 5.864C121.278 5.55467 120.723 5.4 119.998 5.4H117.142L117.558 4.808V10.328ZM129.801 16.064L126.593 4.2H128.089L130.841 14.992H130.745L133.465 4.2H134.969L131.793 16.064H129.801ZM138.622 16V4.2H139.966V16H138.622ZM152.948 11.896C152.948 12.3707 152.86 12.8587 152.684 13.36C152.508 13.856 152.242 14.3173 151.884 14.744C151.532 15.1653 151.087 15.5067 150.548 15.768C150.01 16.0293 149.378 16.16 148.652 16.16C147.655 16.16 146.807 15.9013 146.108 15.384C145.41 14.8613 144.876 14.144 144.508 13.232C144.146 12.32 143.964 11.2773 143.964 10.104C143.964 8.92533 144.146 7.88267 144.508 6.976C144.876 6.064 145.41 5.34933 146.108 4.832C146.807 4.31467 147.655 4.056 148.652 4.056C149.484 4.056 150.194 4.22667 150.78 4.568C151.367 4.90933 151.834 5.344 152.18 5.872C152.527 6.4 152.754 6.944 152.86 7.504C152.919 7.78667 152.948 8.05333 152.948 8.304H151.58C151.58 8.16 151.567 7.99467 151.54 7.808C151.476 7.36 151.322 6.94667 151.076 6.568C150.836 6.184 150.514 5.87733 150.108 5.648C149.703 5.41333 149.218 5.296 148.652 5.296C147.991 5.296 147.412 5.47733 146.916 5.84C146.426 6.20267 146.042 6.74133 145.764 7.456C145.492 8.17067 145.356 9.05333 145.356 10.104C145.356 11.1547 145.492 12.04 145.764 12.76C146.042 13.4747 146.426 14.016 146.916 14.384C147.412 14.7467 147.991 14.928 148.652 14.928C149.127 14.928 149.546 14.8427 149.908 14.672C150.271 14.496 150.575 14.264 150.82 13.976C151.071 13.6827 151.26 13.3573 151.388 13C151.516 12.6373 151.58 12.2693 151.58 11.896H152.948ZM157.63 5.4L158.246 4.624V9.952L157.91 9.48H162.438V10.68H157.91L158.246 10.208V15.576L157.63 14.8H163.326V16H156.878V4.2H163.326V5.4H157.63ZM171.149 16.16C170.333 16.16 169.634 16.032 169.053 15.776C168.477 15.5147 168.034 15.1227 167.725 14.6C167.416 14.0773 167.261 13.4267 167.261 12.648C167.261 12.5413 167.261 12.4507 167.261 12.376C167.261 12.3013 167.261 12.2107 167.261 12.104H168.629C168.629 12.2053 168.629 12.2907 168.629 12.36C168.629 12.4293 168.629 12.5173 168.629 12.624C168.629 13.44 168.842 14.0293 169.269 14.392C169.696 14.7493 170.317 14.928 171.133 14.928C171.976 14.928 172.613 14.784 173.045 14.496C173.477 14.208 173.693 13.7413 173.693 13.096C173.693 12.6427 173.568 12.2667 173.317 11.968C173.072 11.664 172.73 11.408 172.293 11.2C171.856 10.9867 171.346 10.792 170.765 10.616C170.109 10.4133 169.522 10.1573 169.005 9.848C168.493 9.53867 168.088 9.15733 167.789 8.704C167.496 8.24533 167.349 7.688 167.349 7.032C167.349 6.392 167.504 5.85067 167.813 5.408C168.128 4.96533 168.565 4.62933 169.125 4.4C169.685 4.17067 170.336 4.056 171.077 4.056C171.861 4.056 172.541 4.17867 173.117 4.424C173.698 4.664 174.146 5.032 174.461 5.528C174.781 6.01867 174.941 6.63733 174.941 7.384C174.941 7.50133 174.941 7.60267 174.941 7.688C174.941 7.768 174.941 7.86667 174.941 7.984H173.573C173.573 7.88267 173.573 7.792 173.573 7.712C173.573 7.632 173.573 7.54133 173.573 7.44C173.573 6.66133 173.362 6.10933 172.941 5.784C172.52 5.45333 171.906 5.288 171.101 5.288C170.328 5.288 169.73 5.424 169.309 5.696C168.888 5.968 168.677 6.41333 168.677 7.032C168.677 7.496 168.805 7.88 169.061 8.184C169.322 8.48267 169.677 8.73867 170.125 8.952C170.573 9.16 171.085 9.36 171.661 9.552C172.36 9.78133 172.96 10.0427 173.461 10.336C173.968 10.624 174.354 10.984 174.621 11.416C174.893 11.848 175.029 12.392 175.029 13.048C175.029 13.704 174.872 14.264 174.557 14.728C174.248 15.192 173.802 15.5467 173.221 15.792C172.645 16.0373 171.954 16.16 171.149 16.16Z" fill="white"/>
<defs>
<clipPath id="clip0_1_217">
<rect width="72" height="10" fill="white" transform="translate(1 7)"/>
</clipPath>
</defs>
</svg>
